<svg preserveAspectRatio="none" width="100%" height="100%" overflow="visible" style="display: block;" viewBox="0 0 215 37" fill="none" xmlns="http://www.w3.org/2000/svg">
<g id="Layer_1" clip-path="url(#clip0_5_1024)">
<path id="Vector" d="M108.163 20.6391H108.182C108.163 20.4135 108.153 20.1878 108.144 19.9527L108.163 20.6391Z" fill="var(--fill-0, white)"/>
<path id="Vector_2" d="M108.125 19.2381L108.144 19.9527C108.144 19.7083 108.144 19.4732 108.144 19.2381H108.125Z" fill="var(--fill-0, white)"/>
<path id="Vector_3" d="M94.9539 32.6089H97.0128V26.8732H94.9539C93.8445 26.8732 92.942 25.9705 92.942 24.861V0H87.2071V24.861C87.2071 29.1299 90.6856 32.6089 94.9539 32.6089Z" fill="var(--fill-0, white)"/>
<path id="Vector_4" d="M105.822 32.6089H107.881V26.8732H105.822C104.712 26.8732 103.81 25.9705 103.81 24.861V0H98.0751V24.861C98.0751 29.1299 101.554 32.6089 105.822 32.6089Z" fill="var(--fill-0, white)"/>
<path id="Vector_5" d="M131.647 20.6391H131.572C131.572 20.7614 131.591 20.893 131.6 21.0152C131.619 20.893 131.638 20.7614 131.647 20.6391Z" fill="var(--fill-0, white)"/>
<path id="Vector_6" d="M131.779 21.2315C131.779 21.2785 131.77 21.3255 131.76 21.382C131.817 22.0119 131.92 22.6701 132.08 23.2907C132.174 23.6762 132.287 24.0618 132.428 24.4285C133.358 27.033 135.164 29.2709 137.523 30.7471C139.479 31.9601 141.726 32.6089 144.029 32.6089C147.752 32.6089 151.343 30.907 153.684 28.0485L149.792 24.1558C148.542 26.1116 146.436 27.2681 144.123 27.2681C141.152 27.2681 138.539 25.3499 137.627 22.5009C137.41 21.8145 137.298 21.1093 137.298 20.3947C137.298 19.4638 137.476 18.5705 137.815 17.7149C138.868 15.1103 141.312 13.4272 144.029 13.4272C146.238 13.4272 148.354 14.5367 149.595 16.3327L153.487 12.4399C151.146 9.68488 147.62 8.03939 144.029 8.03939C142.036 8.03939 140.127 8.50953 138.36 9.431C134.534 11.4244 132.005 15.3172 131.741 19.5954C131.723 19.8211 131.723 20.0562 131.713 20.2912L131.553 20.3476H131.713C131.713 20.5075 131.713 20.6673 131.723 20.8366H131.817V21.0058C131.798 21.0811 131.788 21.1657 131.77 21.2409L131.779 21.2315Z" fill="var(--fill-0, white)"/>
<path id="Vector_7" d="M160.707 32.0729C161.619 32.4302 162.559 32.6089 163.518 32.6089H166.226V26.8732H163.518C162.409 26.8732 161.506 25.9705 161.506 24.861V13.9726H165.821V8.23685H161.506V0H155.771V24.861C155.771 28.0673 157.708 30.8976 160.707 32.0729Z" fill="var(--fill-0, white)"/>
<path id="Vector_8" d="M38.5362 21.382C38.5926 22.0119 38.6961 22.6701 38.8559 23.2907C38.9499 23.6762 39.0627 24.0618 39.2037 24.4285C40.1345 27.033 41.9395 29.2709 44.2993 30.7471C46.2548 31.9601 48.5017 32.6089 50.805 32.6089C54.528 32.6089 58.1193 30.907 60.4602 28.0485L56.5681 24.1558C55.3177 26.1116 53.2118 27.2681 50.899 27.2681C47.9282 27.2681 45.3146 25.3499 44.4027 22.5009C44.1865 21.8145 44.0736 21.1093 44.0736 20.3947C44.0736 19.4638 44.2523 18.5705 44.5907 17.7149C45.6437 15.1103 48.088 13.4272 50.805 13.4272C53.0143 13.4272 55.1297 14.5367 56.3706 16.3327L60.2628 12.4399C57.9219 9.68488 54.3963 8.03939 50.805 8.03939C48.8119 8.03939 46.9035 8.50953 45.136 9.431C41.3096 11.4244 38.7807 15.3172 38.5174 19.5954C38.4986 19.8211 38.4986 20.0562 38.4892 20.2912V20.3476C38.4892 20.5075 38.4892 20.6673 38.4892 20.8366C38.4892 20.8366 38.5268 21.3349 38.5268 21.382H38.5362Z" fill="var(--fill-0, white)"/>
<path id="Vector_9" d="M85.214 20.3006C85.214 20.1408 85.214 19.9809 85.2046 19.8117C85.2046 19.8117 85.167 19.3133 85.167 19.2663C85.1106 18.6363 85.0072 17.9781 84.8474 17.3576C84.7534 16.972 84.6406 16.5865 84.4995 16.2198C83.5688 13.6152 81.7637 11.3774 79.404 9.90114C77.6271 8.79161 75.5964 8.17103 73.5093 8.0676C73.4247 8.0676 73.3495 8.0676 73.2649 8.0676C73.1427 8.0676 73.0205 8.0582 72.8888 8.0582C72.87 8.0582 72.8606 8.0582 72.8418 8.0582C72.823 8.0582 72.8136 8.0582 72.7948 8.0582C70.8017 8.0582 68.8933 8.52834 67.1258 9.44981C66.4489 9.80712 65.8096 10.2208 65.2173 10.691C65.2079 10.691 65.1985 10.7098 65.1891 10.7192C65.1233 10.7756 65.0575 10.8226 64.9917 10.879C64.343 11.4056 63.7507 11.9886 63.2242 12.628L63.243 12.6468C61.6542 14.6119 60.6671 17.0473 60.5166 19.6236C60.4978 19.8493 60.4978 20.0844 60.4884 20.3194V20.3759C60.4884 20.5357 60.4884 20.6956 60.4884 20.8648C60.4884 20.8648 60.526 21.3632 60.526 21.4102C60.5824 22.0402 60.6859 22.6983 60.8457 23.3189C60.9397 23.7044 61.0525 24.09 61.1935 24.4567C62.1243 27.0612 63.9293 29.2991 66.2891 30.7753C68.0659 31.8849 70.0966 32.5055 72.1837 32.6089C72.2684 32.6089 72.3436 32.6089 72.4282 32.6089C72.5504 32.6089 72.6726 32.6183 72.8042 32.6183C72.823 32.6183 72.8324 32.6183 72.8512 32.6183C72.87 32.6183 72.8794 32.6183 72.8983 32.6183C74.8913 32.6183 76.7998 32.1482 78.5673 31.2267C79.2442 30.8694 79.8835 30.4557 80.4758 29.9855C80.4852 29.9855 80.4946 29.9667 80.504 29.9667C80.5698 29.9103 80.6356 29.8633 80.7014 29.8069C81.3501 29.2803 81.9424 28.6973 82.4688 28.0579L82.45 28.0391C84.0389 26.074 85.026 23.6386 85.1764 21.0623C85.1952 20.8366 85.1952 20.6015 85.2046 20.3665V20.31L85.214 20.3006ZM79.31 18.1474C79.5262 18.8338 79.639 19.539 79.639 20.2536C79.639 21.1845 79.4604 22.0778 79.122 22.9334C78.069 25.538 75.6247 27.2211 72.9077 27.2211C70.6983 27.2211 68.583 26.1116 67.342 24.3156L67.3232 24.3344C66.9378 23.7797 66.6275 23.1685 66.4207 22.5009C66.2045 21.8145 66.0917 21.1093 66.0917 20.3947C66.0917 19.4638 66.2703 18.5705 66.6087 17.7149C67.6617 15.1103 70.106 13.4272 72.823 13.4272C75.0324 13.4272 77.1477 14.5367 78.3886 16.3327L78.4075 16.3139C78.7929 16.8686 79.1032 17.4798 79.31 18.1474Z" fill="var(--fill-0, white)"/>
<path id="Vector_10" d="M130.782 27.1365L127.238 23.5916C126.853 24.2122 126.392 24.7482 125.884 25.1619C123.318 27.2681 120.15 27.7571 117.621 26.4313L117.433 26.3372L130.303 13.3238L129.993 12.9476C129.683 12.5715 129.372 12.1766 128.921 11.7253C126.58 9.35578 123.384 8.00178 120.14 8.00178C116.897 8.00178 114.001 9.26175 111.735 11.556C109.582 13.7375 108.341 16.5959 108.238 19.6142C108.238 19.8493 108.229 20.0844 108.238 20.3288C108.238 20.5545 108.257 20.7802 108.276 21.0058C108.511 23.9771 109.808 26.798 111.942 28.9606C114.283 31.3301 117.357 32.6277 120.591 32.6277C123.863 32.6277 126.966 31.3113 129.325 28.923C129.861 28.3776 130.35 27.7853 130.792 27.1553L130.782 27.1365ZM114.17 22.6325C113.841 21.8615 113.644 21.0623 113.597 20.263C113.475 18.3919 114.151 16.6053 115.486 15.2513C117.517 13.1921 120.385 12.6844 122.773 13.9443L122.961 14.0384L114.264 22.8394L114.17 22.6231V22.6325Z" fill="var(--fill-0, white)"/>
<path id="Vector_11" d="M209.472 0V10.0986L209.237 9.94816C207.253 8.69759 204.959 8.02999 202.609 8.02999C197.654 8.02999 193.208 10.9825 191.271 15.5522C190.632 17.0661 190.303 18.674 190.303 20.3382C190.303 21.2879 190.415 22.247 190.641 23.1779C191.967 28.7255 196.893 32.5995 202.609 32.5995C209.444 32.5995 215.009 27.0989 215.009 20.3382C215.009 20.0938 215 19.8305 214.981 19.5202V0H209.481H209.472ZM202.647 27.2775C198.905 27.2775 195.868 24.1934 195.868 20.4041C195.868 16.6147 198.914 13.4272 202.647 13.4272C206.379 13.4272 209.425 16.5113 209.425 20.31C209.425 24.1088 206.379 27.2775 202.647 27.2775Z" fill="var(--fill-0, white)"/>
<path id="Vector_12" d="M189.494 27.1365L185.95 23.5916C185.564 24.2122 185.104 24.7482 184.596 25.1619C182.029 27.2681 178.861 27.7571 176.332 26.4313L176.144 26.3372L189.015 13.3238L188.704 12.9476C188.394 12.5715 188.084 12.1766 187.633 11.7253C185.292 9.35578 182.095 8.00178 178.852 8.00178C175.608 8.00178 172.713 9.26175 170.447 11.556C168.294 13.7375 167.053 16.5959 166.95 19.6142C166.95 19.8493 166.94 20.0844 166.95 20.3288C166.95 20.5545 166.968 20.7802 166.987 21.0058C167.222 23.9771 168.52 26.798 170.654 28.9606C172.995 31.3301 176.069 32.6277 179.303 32.6277C182.575 32.6277 185.677 31.3113 188.037 28.923C188.573 28.3776 189.062 27.7853 189.503 27.1553L189.494 27.1365ZM172.882 22.6325C172.553 21.8615 172.355 21.0623 172.308 20.263C172.186 18.3919 172.863 16.6053 174.198 15.2513C176.229 13.1921 179.096 12.6844 181.484 13.9443L181.672 14.0384L172.976 22.8394L172.882 22.6231V22.6325Z" fill="var(--fill-0, white)"/>
<path id="Vector_13" d="M0 31.2643V17.4892H3.15886V31.2643H0ZM9.15694 31.2643V23.0557C9.15694 22.1342 8.86549 21.429 8.29201 20.9212C7.71853 20.4135 7.01342 20.1596 6.1673 20.1596C5.59382 20.1596 5.07674 20.2724 4.63488 20.5075C4.19301 20.7426 3.82636 21.0717 3.56312 21.4948C3.29988 21.9179 3.15886 22.4445 3.15886 23.0557L1.92728 22.3693C1.92728 21.3161 2.15291 20.4041 2.61358 19.6424C3.07425 18.8808 3.69474 18.279 4.47505 17.8465C5.25537 17.414 6.1391 17.1977 7.11684 17.1977C8.09458 17.1977 8.96891 17.4046 9.75863 17.8277C10.5389 18.2508 11.1688 18.8432 11.6201 19.6048C12.0808 20.3665 12.3064 21.2879 12.3064 22.3598V31.2549H9.14754L9.15694 31.2643ZM18.3139 31.2643V23.0557C18.3139 22.1342 18.0224 21.429 17.4489 20.9212C16.8755 20.4135 16.1704 20.1596 15.3242 20.1596C14.7696 20.1596 14.2619 20.2724 13.8012 20.5075C13.3405 20.7332 12.9833 21.0717 12.7107 21.4948C12.438 21.9179 12.3064 22.4445 12.3064 23.0557L10.5295 22.3693C10.6236 21.3161 10.9338 20.4041 11.4509 19.6424C11.9679 18.8808 12.6354 18.279 13.444 17.8465C14.2619 17.414 15.155 17.1977 16.1234 17.1977C17.0917 17.1977 18.013 17.4046 18.8215 17.8277C19.6207 18.2508 20.2694 18.8432 20.7488 19.6048C21.2283 20.3665 21.4633 21.2879 21.4633 22.3598V31.2549H18.3045L18.3139 31.2643Z" fill="var(--fill-0, white)"/>
<path id="Vector_14" d="M28.1195 31.4053L22.2342 17.4798H25.7034L29.7177 27.7006H28.7118L32.9612 17.4798H36.4585L30.0562 31.4053H28.1007H28.1195ZM24.0111 37L28.2887 28.1896L30.0656 31.4053L27.5084 37H24.0111Z" fill="var(--fill-0, white)"/>
</g>
<defs>
<clipPath id="clip0_5_1024">
<rect width="215" height="37" fill="white"/>
</clipPath>
</defs>
</svg>
